<?xml version="1.0" encoding="UTF-8" standalone="no"?>
<svg width="120px" height="120px" viewBox="0 0 120 120" version="1.1" xmlns="http://www.w3.org/2000/svg" xmlns:xlink="http://www.w3.org/1999/xlink" xmlns:sketch="http://www.bohemiancoding.com/sketch/ns">
    <title>efficiency</title>
    <description>Created with Sketch (http://www.bohemiancoding.com/sketch)</description>
    <defs></defs>
    <g id="Page-1" stroke="none" stroke-width="1" fill="none" fill-rule="evenodd" sketch:type="MSPage">
        <g id="efficiency" sketch:type="MSArtboardGroup" stroke="#FFFFFF">
            <g id="Imported-Layers" sketch:type="MSLayerGroup" transform="translate(7.000000, 7.000000)">
                <path d="M104,52 C104,80.7186957 80.7186957,104 52,104 C23.2813043,104 0,80.7186957 0,52 C0,23.2813043 23.2813043,0 52,0 C80.7186957,0 104,23.2813043 104,52 L104,52 Z" id="Stroke-1" stroke-width="2" sketch:type="MSShapeGroup"></path>
                <path d="M46.2389861,59.4083305 L59.2931307,72.4504685 C59.6723899,72.8293462 60.2872834,72.8293462 60.6676646,72.4504685 L63.4156103,69.7041652 C63.7959915,69.3252875 63.7959915,68.7110123 63.4156103,68.3310136 L62.7289044,62.1535127 L78.5321168,46.3673134 L81.2800625,49.1124957 C81.6581996,49.4924944 82.2742152,49.4924944 82.6545964,49.1124957 L84.7147141,47.0533287 C85.0950953,46.674451 85.0950953,46.0590549 84.7147141,45.681298 L59.2931307,20.2841583 C58.9138716,19.9052806 58.298978,19.9052806 57.9185968,20.2841583 L55.857357,22.3433253 C55.4780979,22.722203 55.4780979,23.3375991 55.857357,23.7164769 L58.6064248,26.4616592 L42.8043345,42.2489795 L36.618371,41.5618432 C36.2402339,41.1829654 35.6242183,41.1829654 35.2449592,41.5618432 L32.4970135,44.3081464 C32.1177543,44.6881451 32.1177543,45.3012994 32.4970135,45.681298 L45.7082477,58.8803677 L27,80 L47.6123979,59.4083305" id="Stroke-2" stroke-width="1.732" sketch:type="MSShapeGroup"></path>
            </g>
        </g>
    </g>
</svg>