<?xml version="1.0" encoding="utf-8"?>
<!-- Generator: Adobe Illustrator 16.0.4, SVG Export Plug-In . SVG Version: 6.00 Build 0)  -->
<!DOCTYPE svg PUBLIC "-//W3C//DTD SVG 1.1//EN" "http://www.w3.org/Graphics/SVG/1.1/DTD/svg11.dtd">
<svg version="1.1" id="Layer_1" xmlns="http://www.w3.org/2000/svg" xmlns:xlink="http://www.w3.org/1999/xlink" x="0px" y="0px"
	 width="143.5px" height="41px" viewBox="0 0 143.5 41" enable-background="new 0 0 143.5 41" xml:space="preserve">
<g>
	<path fill="#333333" d="M69.119,25.882l1.455-8.333h-2.48l0.397-2.281h5.324l-1.918,10.779c-0.166,1.059,0.198,1.521,1.091,1.521
		c0.628,0,1.256-0.198,1.719-0.364l-0.364,2.183c-0.628,0.198-1.455,0.364-2.281,0.364C69.351,29.751,68.755,27.965,69.119,25.882z
		 M70.971,10.374c0-1.091,0.926-1.984,1.984-1.984c1.091,0,2.017,0.894,2.017,1.984s-0.926,1.984-2.017,1.984
		C71.896,12.358,70.971,11.465,70.971,10.374z"/>
	<path fill="#333333" d="M79.402,17.549h-2.447l0.396-2.281h5.125l-0.363,1.951c1.19-1.091,2.877-2.314,4.927-2.314
		c1.753,0,3.042,0.893,3.405,2.579c1.225-1.157,3.01-2.579,5.225-2.579c2.281,0,3.902,1.554,3.373,4.562l-1.157,6.58
		c-0.165,1.059,0.165,1.521,1.124,1.521c0.562,0,1.224-0.198,1.687-0.364l-0.364,2.183c-0.628,0.198-1.455,0.364-2.314,0.364
		c-2.678,0-3.273-1.819-2.91-3.869l1.092-6.315c0.265-1.455-0.198-2.381-1.488-2.381c-1.488,0-3.041,1.157-4.266,2.281l-1.719,9.953
		h-2.811l1.719-9.854c0.266-1.455-0.197-2.381-1.487-2.381c-1.521,0-3.075,1.224-4.299,2.348l-1.753,9.887h-2.81L79.402,17.549z"/>
	<path fill="#333333" d="M106.381,27.139L104.828,36h-2.844l3.273-18.451h-2.381l0.396-2.281h4.96l-0.331,2.05
		c1.224-1.454,2.877-2.413,4.895-2.413c3.074,0,5.455,2.248,5.455,6.447c0,5.026-3.373,8.432-7.373,8.432
		C108.663,29.783,107.176,28.726,106.381,27.139z M115.375,21.385c0-2.711-1.322-4.299-3.472-4.299c-2.876,0-4.993,2.91-4.993,6.283
		c0,2.546,1.224,4.232,3.473,4.232C113.227,27.602,115.375,24.856,115.375,21.385z"/>
	<path fill="#333333" d="M120.399,23.435c0-4.927,3.538-8.53,7.969-8.53c2.844,0,4.332,1.487,4.332,3.604
		c0,3.836-4.827,5.093-9.49,5.324c0.165,2.612,1.587,3.736,3.968,3.736c1.654,0,3.207-0.562,4.563-1.19l-0.463,2.348
		c-1.124,0.595-2.712,1.058-4.464,1.058C123.145,29.783,120.399,27.767,120.399,23.435z M130.088,18.574
		c0-0.826-0.463-1.554-1.852-1.554c-2.348,0-4.299,1.95-4.895,4.695C126.682,21.583,130.088,20.757,130.088,18.574z"/>
	<path fill="#333333" d="M134.848,25.882l3.107-17.591h-2.513l0.431-2.249h5.322l-3.537,20.005
		c-0.166,1.059,0.165,1.521,1.091,1.521c0.595,0,1.257-0.198,1.72-0.364l-0.363,2.183c-0.629,0.198-1.455,0.364-2.282,0.364
		C135.111,29.751,134.517,27.965,134.848,25.882z"/>
</g>
<g>
	<path fill="#333333" d="M2.216,20.432c0-9.9,8.053-17.954,17.953-17.954c6.686,0,12.525,3.676,15.615,9.11l1.417-1.418
		c-3.486-5.766-9.816-9.629-17.032-9.629c-10.968,0-19.89,8.924-19.89,19.891c0,2.356,0.414,4.617,1.17,6.716l1.532-1.531
		C2.485,23.972,2.216,22.233,2.216,20.432z"/>
	<path fill="#333333" d="M38.122,20.432c0,9.899-8.054,17.953-17.953,17.953c-6.589,0-12.357-3.571-15.48-8.876l-1.375,1.389
		l-0.03,0.029c3.516,5.636,9.768,9.395,16.885,9.395c10.968,0,19.89-8.921,19.89-19.89c0-2.288-0.393-4.485-1.107-6.533
		l-1.541,1.541C37.87,17.026,38.122,18.7,38.122,20.432z"/>
	<polygon fill="#4DACDC" points="42.123,6.489 39.407,7.714 39.889,8.853 24.89,23.852 15.503,14.462 0.647,29.318 1.687,31.155 
		15.503,17.202 24.889,26.588 41.263,10.218 42.389,10.697 43.614,7.981 44.838,5.265 	"/>
</g>
</svg>
