<?xml version="1.0" encoding="UTF-8" standalone="no"?>
<svg width="159px" height="45px" viewBox="0 0 159 45" version="1.1" xmlns="http://www.w3.org/2000/svg" xmlns:xlink="http://www.w3.org/1999/xlink" xmlns:sketch="http://www.bohemiancoding.com/sketch/ns">
    <title>logo</title>
    <description>Created with Sketch (http://www.bohemiancoding.com/sketch)</description>
    <defs></defs>
    <g id="Page-1" stroke="none" stroke-width="1" fill="none" fill-rule="evenodd" sketch:type="MSPage">
        <g id="logo" sketch:type="MSArtboardGroup">
            <g sketch:type="MSLayerGroup" transform="translate(4.000000, 2.000000)" id="Group">
                <g transform="translate(71.000000, 5.000000)" fill="#333333" sketch:type="MSShapeGroup">
                    <path d="M1.08498412,20.9928882 L2.62513232,12.3624249 L0,12.3624249 L0.420232875,10 L6.05579918,10 L4.02555572,21.1637782 C3.84984122,22.2605814 4.2351429,22.7390734 5.18040224,22.7390734 C5.84515349,22.7390734 6.50990473,22.5340054 7,22.3620797 L6.61469832,24.6230063 C5.94994707,24.8280743 5.07455013,25 4.2002117,25 C1.33056102,25 0.699682444,23.1502451 1.08498412,20.9928882 L1.08498412,20.9928882 Z M3,5 C3,3.90020161 3.92576856,3 4.98350412,3 C6.07423144,3 7,3.90120968 7,5 C7,6.09879032 6.07423144,7 4.98350412,7 C3.92476881,7 3,6.09979839 3,5 L3,5 Z" id="Shape"></path>
                    <path d="M11.5766574,11.8495218 L9,11.8495218 L9.41698256,9.39121649 L14.8135372,9.39121649 L14.4313032,11.4938704 C15.6843568,10.3180655 17.4607447,9 19.6193665,9 C21.4652515,9 22.8225508,9.96241412 23.2047848,11.7794692 C24.4946929,10.532534 26.3742734,9 28.706638,9 C31.1084997,9 32.8153904,10.6747946 32.2583607,13.9166105 L31.0400556,21.008083 C30.8663129,22.1494005 31.2137983,22.6473124 32.2236122,22.6473124 C32.8153904,22.6473124 33.5124674,22.4339216 34,22.2550182 L33.616713,24.6077058 C32.9554376,24.8210966 32.084618,25 31.1801028,25 C28.3602055,25 27.7336787,23.0396066 28.1159127,20.8302573 L29.2657737,14.0243837 C29.5448151,12.4562845 29.0572825,11.4583053 27.6989302,11.4583053 C26.1320866,11.4583053 24.4967989,12.7052405 23.2068907,13.9166105 L21.3968073,24.6432709 L18.4368629,24.6432709 L20.2469463,14.0233059 C20.5270407,12.4552068 20.039508,11.4572275 18.6811558,11.4572275 C17.0795636,11.4572275 15.443223,12.7763707 14.1543678,13.9877408 L12.3084829,24.6432709 L9.34959144,24.6432709 L11.5766574,11.8495218 L11.5766574,11.8495218 Z" id="Shape"></path>
                    <path d="M40.5951312,21.7588528 L38.9721522,31 L36,31 L39.4204832,11.7574307 L36.932194,11.7574307 L37.346038,9.37857312 L42.5295383,9.37857312 L42.1836233,11.5165205 C43.4627774,10.0001422 45.1902625,9 47.2991947,9 C50.5117108,9 53,11.3444418 53,15.7235838 C53,20.965205 49.4750108,24.5173264 45.2947685,24.5173264 C42.9799594,24.5162835 41.4259544,23.413937 40.5951312,21.7588528 L40.5951312,21.7588528 Z M50,15.4972895 C50,12.6612458 48.5944477,11 46.3085647,11 C43.2507974,11 41,14.0442225 41,17.5728006 C41,20.2362337 42.3013585,21.9999997 44.6924985,21.9999997 C47.7162434,22.0010458 50,19.1283878 50,15.4972895 L50,15.4972895 Z" id="Shape"></path>
                    <path d="M55,18.172043 C55,12.8741935 58.7390456,9 63.4218356,9 C66.4274449,9 68,10.5989247 68,12.8752688 C68,17 62.8987074,18.3516129 57.9707341,18.6 C58.1451102,21.4086022 59.6479148,22.6172043 62.1642143,22.6172043 C63.9122023,22.6172043 65.5534509,22.0129032 66.9865052,21.3376344 L66.4971953,23.8623656 C65.3093244,24.5021505 63.6310869,25 61.7795301,25 C57.9020405,24.9978495 55,22.8301075 55,18.172043 L55,18.172043 Z M65,12.6549521 C65,11.7752929 64.5196384,11 63.0785534,11 C60.6425078,11 58.6183489,13.0766773 58,16 C61.4662813,15.8594249 65,14.9797657 65,12.6549521 L65,12.6549521 Z" id="Shape"></path>
                    <path d="M70.077415,21.7571386 L72.9766543,2.46632081 L70.631695,2.46632081 L71.0338747,0 L76,0 L72.6995142,21.9380826 C72.5446144,23.0994137 72.8534809,23.6060568 73.7175606,23.6060568 C74.2727738,23.6060568 74.8905068,23.388924 75.3225466,23.2068835 L74.9838199,25.6008267 C74.3968802,25.8179594 73.6261137,26 72.854414,26 C70.3228285,26 69.7685485,24.0414189 70.077415,21.7571386 L70.077415,21.7571386 Z" id="Shape"></path>
                </g>
                <g sketch:type="MSShapeGroup">
                    <path d="M2.04601593,20.9323862 C2.04601593,10.5140752 10.5522453,2.03841094 21.0094253,2.03841094 C28.0717188,2.03841094 34.2393424,5.90686661 37.5032501,11.6253617 L39,10.1331229 C35.3178051,4.06524599 28.6315476,0 21.0094253,0 C9.42413737,0 0,9.39121284 0,20.9323862 C0,23.4117338 0.437300255,25.7911076 1.23584855,28 L2.85407074,26.388845 C2.33015546,24.6577217 2.04601593,22.8276769 2.04601593,20.9323862 L2.04601593,20.9323862 Z" id="Shape" fill="#333333"></path>
                    <path d="M39.9458056,20.6756614 C39.9458056,30.7908262 31.4045139,39.0207017 20.9065942,39.0207017 C13.9189395,39.0207017 7.80195785,35.3717216 4.4900068,29.9508761 L3.03181509,31.3702078 L3,31.399841 C6.72872876,37.1589146 13.3589939,41 20.9065942,41 C32.5381917,41 42,31.8841918 42,20.6756614 C42,18.3376982 41.5832223,16.0927222 40.8260231,14 L39.1917879,15.5746509 C39.6785588,17.1952844 39.9458056,18.9058396 39.9458056,20.6756614 L39.9458056,20.6756614 Z" id="Shape" fill="#333333"></path>
                    <path d="M44.1738589,5.2764774 L41.3466769,6.55399768 L41.848408,7.74183082 L26.2354099,23.3838934 L16.4641443,13.5913094 L1,29.084241 L2.08257337,31 L16.4641443,16.4487833 L26.234369,26.2371958 L43.278654,9.16535342 L44.4507479,9.66488992 L45.7258944,6.83244496 L47,4 L44.1738589,5.2764774 Z" id="Shape" fill="#4DACDC"></path>
                </g>
            </g>
        </g>
    </g>
</svg>