<?xml version="1.0" encoding="UTF-8" standalone="no"?>
<svg width="120px" height="120px" viewBox="0 0 120 120" version="1.1" xmlns="http://www.w3.org/2000/svg" xmlns:xlink="http://www.w3.org/1999/xlink" xmlns:sketch="http://www.bohemiancoding.com/sketch/ns">
    <title>results</title>
    <description>Created with Sketch (http://www.bohemiancoding.com/sketch)</description>
    <defs></defs>
    <g id="Page-1" stroke="none" stroke-width="1" fill="none" fill-rule="evenodd" sketch:type="MSPage">
        <g id="results" sketch:type="MSArtboardGroup">
            <g id="Imported-Layers" sketch:type="MSLayerGroup" transform="translate(7.000000, 7.000000)">
                <path d="M51.5,95 L51.5,71.000375 L84.6721726,71.000375 C85.4066202,71.000375 86,70.404125 86,69.666125 L86,24.333125 C86,23.59625 85.4066202,23 84.6721726,23 L18.3278274,23 C17.5933798,23 17,23.59625 17,24.333125 L17,69.666125 C17,70.404125 17.5933798,71.000375 18.3278274,71.000375 L50.1732922,71.000375 L51.5,95 Z M67,91.5391371 L55.1746071,80 L47.8253929,80 L36,91.5391371 C36,91.5391371 39.3214286,96 51.5,96 C63.6785714,96 67,91.5391371 67,91.5391371 L67,91.5391371 Z" id="Stroke-1" stroke="#FFFFFF" stroke-width="2.37" sketch:type="MSShapeGroup"></path>
                <path d="M27.9009229,64 L26,62.1084856 L43.7631314,44.4426889 L53.8646924,54.4882556 L77.1240445,32 L79,33.917472 L53.8374553,58.2453269 L43.7631314,48.2268463 L27.9009229,64" id="Fill-2" fill="#FFFFFF" sketch:type="MSShapeGroup"></path>
                <path d="M80,39 L77.3337083,39 L77.3337083,33.6662917 L72,33.6662917 L72,31 L80,31 L80,39" id="Fill-3" fill="#FFFFFF" sketch:type="MSShapeGroup"></path>
                <path d="M104,52 C104,80.7186957 80.7186957,104 52,104 C23.2813043,104 0,80.7186957 0,52 C0,23.2813043 23.2813043,0 52,0 C80.7186957,0 104,23.2813043 104,52 L104,52 Z" id="Stroke-4" stroke="#FFFFFF" stroke-width="2" sketch:type="MSShapeGroup"></path>
            </g>
        </g>
    </g>
</svg>